<?xml version="1.0" encoding="UTF-8"?>
<!DOCTYPE svg PUBLIC "-//W3C//DTD SVG 1.1//EN" "http://www.w3.org/Graphics/SVG/1.1/DTD/svg11.dtd">
<!-- Creator: CorelDRAW -->
<svg xmlns="http://www.w3.org/2000/svg" xml:space="preserve" width="189.101mm" height="219.456mm" version="1.1" style="shape-rendering:geometricPrecision; text-rendering:geometricPrecision; image-rendering:optimizeQuality; fill-rule:evenodd; clip-rule:evenodd"
viewBox="0 0 19062.05 22121.92"
 xmlns:xlink="http://www.w3.org/1999/xlink"
 xmlns:xodm="http://www.corel.com/coreldraw/odm/2003">
 <defs>
  <style type="text/css">
   <![CDATA[
    .fil1 {fill:#E70609}
    .fil0 {fill:#E9131D}
   ]]>
  </style>
 </defs>
 <g id="Layer_x0020_1">
  <metadata id="CorelCorpID_0Corel-Layer"/>
  <g id="_2230540326528">
   <path class="fil0" d="M14757.91 19525.96c-875.45,0 -1602.06,-165.7 -2276.19,-639.83 -156.29,-109.92 -351.51,-261.06 -489,-400.03 -769.15,-777.4 -1110.98,-1544.16 -1110.98,-2694.08 0,-527.21 160.85,-1072.31 343.47,-1434.6 54.71,-108.53 88.06,-180.92 147.18,-279.55 69.64,-116.17 114.29,-178.1 184.59,-277.7 75.2,-106.53 87.84,-140.79 186.9,-239.83 100.64,-100.6 123.78,-155 212.43,-249.86 585.48,-626.47 1710.52,-1039.02 2623.79,-1039.02 2595.91,0 4552.14,2828.53 3390.44,5132.94 -220.58,437.56 -404.19,718.09 -732.08,1045.98 -296.29,296.29 -643.1,539.01 -1045.77,732.31 -358.22,171.96 -922.23,343.28 -1434.79,343.28zm-8336.64 -11450.73c47.05,178.01 164.63,283.3 371.22,288.76 269.68,7.13 283.68,-96.63 390.89,-233.87 -119.06,-76.93 -20.52,24.43 -54.58,-92.32 -37.69,-129.21 -9.28,-799.15 -10.82,-958.29 -9.18,-950.19 -42.38,-4891.3 36.77,-5431.78 49.99,-341.26 190.41,-556.62 375.85,-694.28 448.58,-333.02 1155.05,-183.04 1425.89,338.92 216.37,416.98 124.37,2623.82 123.23,3155.61l-13.4 3238.2c-5.24,425.04 239.97,475.67 597.02,409.92 144.47,-413.94 63.1,-1049.43 68.15,-1550.01 10.92,-1082.59 -53.58,-2191.48 7.07,-3271.87 22.44,-399.7 -19.58,-331.65 187.8,-634.41 75.32,-109.97 72.89,-140.92 211.37,-216.7 79.44,-43.47 183.98,-107.42 293.9,-135.54 490.24,-125.41 959.48,179.46 1092.83,522.97 156.75,403.8 106.29,1088.56 99.46,1566.31 -15.52,1085.4 -21.44,2225.21 1.75,3308.89 5.96,278.16 62.76,465.26 392.19,429.78 277.29,-29.87 294.99,-264.11 285.98,-537.75 -22.19,-673.82 -21.8,-1375.85 21.09,-2049.11 11.58,-181.7 9.36,-181.7 99.21,-316.69 152.92,-229.75 132.69,-264.73 426.42,-396.94 403.21,-181.5 936.44,-59.33 1190.75,313.65 238.19,349.33 191.24,982.1 191.62,1452.99 0.43,555.27 0.97,1114.87 6.06,1671.37 4.35,476.12 41.82,3049.05 -8.73,3307.19 -240.78,160.44 -1419.36,75.8 -2425.99,990.44l-262.82 235.3c-158.37,114.05 -115.97,89.08 -234.21,231.39 -421.45,507.25 -186.58,146.11 -621.86,869.12 -534.41,887.67 -682,2333.35 -303.22,3293.29 211.48,535.94 433.62,991.52 782.11,1422.19 53.16,65.69 76.56,76.17 123.79,127.25 93.91,101.58 118.67,154.26 241.4,255.63l410.27 339.06c42.96,44.76 73.33,76.66 87.11,147.07 23.38,119.52 12.16,1789.8 -4.14,1948.37 -929.11,84.76 -2691.19,-2.76 -3736.96,10.11 -408.74,5.03 -3667.3,26.77 -3748.13,-36.53 -38.37,-42.74 -22.62,-4.26 -35.37,-92.61l-2.55 -4690.38c7.39,-839.63 36,-1454.02 -208.53,-2223.4 -71.04,-223.49 -313.15,-628.57 -423.66,-791.86l-1099.05 -1390.71c-4.75,-5.44 -11.7,-13.36 -16.37,-18.88l-31.21 -39.42c-197.49,-245.16 -690.89,-903.05 -875.93,-1079.32 -148.04,-141.03 -278.93,-345.56 -411.73,-515.07l-510.32 -624.77c-600.77,-1006.73 256.86,-2010.37 1264.68,-1478.67 142.17,75.01 239.75,193.71 337.91,304.63l502.08 563.81c33.68,47.62 29.25,38.48 66.69,74.88 57.38,55.78 4.73,-9.17 72.81,68.23 36.78,41.81 37.38,54.47 75.89,103.75l569.94 636.68c119.26,124.47 125.28,216.93 328.24,285.54 624.46,211.1 434.53,-904.62 432.4,-1343.27 -7.92,-1622.83 1.24,-3249.27 -3.71,-4871.9 -2.57,-842.88 -135.63,-1536.87 511.85,-1887.86 427.36,-231.65 988.45,-94.86 1242.55,296.66 103.36,159.26 122.18,310.2 116.61,523.7 -21.06,806.73 -2.07,1612.58 -15.16,2418.82 -12.95,796.98 45.08,1669.99 -4.45,2453.72zm15.31 -6258.78c-565.6,-299.28 -507.93,-284.49 -1102.4,-284.49 -556.04,0 -1088.72,449.25 -1328.37,947.55 -240.54,500.17 -165.2,1441.48 -165.2,2110.72 0,1529.14 0,3058.27 0,4587.4l-328.37 -347.3c-440.06,-494.02 -971.44,-1252.96 -1840.87,-1252.96 -1009.55,0 -1671.37,775.52 -1671.37,1742.5 0,679.48 434.26,1109.33 742.18,1498.18l766.4 940.54c469.97,594.41 1056.1,1254.51 1514.16,1864.16 833.81,1109.75 782.32,1615.16 782.32,3164.99l-0.04 4551.88c-2.37,989.87 292.41,679.48 1306.3,767.1l7263.99 15.19c151.9,0 322.23,-155.44 368.14,-271.96 66.37,-168.42 23.03,-455.95 23.03,-652.63 -0.01,-438.59 0,-877.17 0,-1315.77 449.99,104.84 736.34,391.18 1884.74,391.18 1300.94,0 2433.62,-596.22 3085.01,-1253.46 199.39,-201.18 324.85,-338.38 496.98,-569.86 972.03,-1307.18 1096.09,-3019.18 335.06,-4476.34 -433.7,-830.42 -1143.95,-1541.02 -1984.85,-1962.43 -392.22,-196.56 -1083.54,-450.41 -1647.71,-450.41l0 -5938.72c0,-615.5 -400.1,-1227.84 -933.88,-1448.72 -401.03,-165.95 -786.89,-203.33 -1205.38,-50.44 -182.98,66.84 -283.77,182.27 -421.15,218.96 0,-795.13 66.42,-1441 -233.16,-1971.64 -142.68,-252.73 -290.64,-417.79 -528.75,-573.65 -451.28,-295.37 -1207.4,-380.07 -1651.3,-77.1 -272.19,185.78 -103.63,21.19 -232.38,-421.81 -49.93,-171.8 -93.43,-272.09 -163.05,-405.93 -409.63,-787.49 -1373.86,-1119.84 -2182.94,-723.56l-494.25 359.22c-57.23,61.99 -131.25,167.06 -183.48,243.25 -224.02,326.73 -269.41,606.76 -269.41,1046.36z"/>
   <path class="fil0" d="M15234.22 16325.45c-91.91,0 -22.44,-13.92 -49.57,54.02 84.75,53.47 34.68,-1.24 -26.63,91.21 -203.65,307.11 -12.18,797.47 -122.66,1367.05 -187.59,69.09 -609.89,58.42 -807.29,11.73 -65.32,-324.01 84.81,-1248.12 -144.81,-1415.64 -176.78,-129 -1198.11,-51.07 -1494.58,-71.24 -62.94,-147.84 -107.3,-730.67 6.3,-884.42 185.59,-162.4 1209.77,70.29 1474.13,-95.04 301.58,-188.61 47.89,-1051.64 153.59,-1396.56 57.33,-95.06 273.46,-64.46 392.43,-64.97 163.66,-0.7 311.71,-32.9 427.27,35.7 62.66,343.73 -113.24,1240.76 131.75,1421.77 186.24,137.61 1121.36,25.09 1442.7,80.32 76.1,247.88 32,660.72 30.01,927.68l-1381.99 -42.8c-6.71,-14.72 -21.48,-11.1 -30.65,-18.82zm519.41 -1496.47l2.23 -1029.72c-25.39,-174.18 31.48,-67.22 -61.62,-140.91l17.6 1098.83c-4.92,-10.79 -9.11,-23.79 -11.8,-33.54l-32.49 -282.95c-1.32,-211.21 27.47,-733.99 -33.72,-878.52 -120.05,-283.5 -726.58,-200.39 -1053.72,-196.57 -1184.12,13.83 -943.86,-105.78 -977.85,1255.36 -3.54,141.65 8.7,137.85 -72.62,196.83 -92.57,77.75 -1163.12,36.13 -1386.84,55.81 -230.42,211.58 -188.68,449.25 -186.28,847.29 1.7,284.12 -20.78,716.57 11.32,983.35 67.8,563.54 1178.43,95.94 1622.66,352.86 123.86,1242.36 -441.99,1424.65 1060.74,1419.12 322.22,-1.19 939.81,96.94 1005.03,-245.7 61.23,-321.67 -1.62,-837.38 28.62,-1193.87 344.79,-137.09 893.79,3.95 1315.35,-53.82 271.22,-37.18 289.48,-141.19 295.28,-406.97l8.23 -1355.44c-12.39,-217.74 -108.15,-342.03 -339.09,-369.61 -165.68,-19.79 -495.98,0.86 -677.6,2.03 -156.01,1 -542.1,-31.91 -533.41,-23.87z"/>
   <path class="fil1" d="M7183.37 8130.12c0,-696.22 -37.74,-5619.88 20.5,-6192.02 31.64,-310.72 -0.39,-452.84 170.19,-713.3 286.18,-436.95 867.65,-513.39 1218.43,-248.5 470.11,355 404.49,646.43 404.49,1409.13 0,1197.22 0,2394.46 0,3591.68 0,546.86 -39.13,1250.25 0.37,1777.7 41.93,559.98 813.67,704.27 819.08,-69.21l-2.48 -4483.21c-4.83,-575.17 419.25,-899.88 888.62,-887.59 275.02,7.21 467.72,156.21 616.02,309.42 325.29,336.05 238.79,906.36 238.79,1539.27 0,993.68 -37.74,2693.39 -1.28,3592.97 11.05,272.74 153.78,452.95 462.24,428.13 291.27,-23.44 360.6,-249.57 357.89,-570.72 -5.02,-592.75 1.3,-1186.26 -1.06,-1779.11 -2.19,-552.04 190.24,-983.78 783.86,-1030.75 1325.29,-104.86 994.32,1585.35 994.32,2595.54 0,707.45 -34.46,3505.28 19.52,4007.92 29.93,278.78 -120.28,59.43 -984.34,325.9 -2371.22,731.25 -3656.08,3260.37 -2791.64,5681.43 222.01,621.76 611.73,1159.76 1062.01,1605.09 84.99,84.06 157.37,133.55 251.89,210.4 85.63,69.63 172.18,161.96 273.34,188.97l0 1955.87 -7432.31 0c0,-1612.11 0,-3224.22 0,-4836.33 0,-1881.91 -0.02,-2214.66 -1153.32,-3683l-2178.46 -2657.88c-167.95,-198.67 -397.15,-475.74 -434.42,-775.13 -110.33,-886.22 938.5,-1653.75 1902.01,-407.97l1125.42 1292.74c100.97,114.64 166.88,228.95 351.61,255.93 771.84,112.73 465.99,-1142.8 456.86,-1882.31l1.42 -4233.2c0,-371.83 -26.4,-849.2 1.02,-1208.06 63.09,-825.7 843.23,-1106.08 1358.91,-791.97 253.42,154.36 416.52,393.34 419.66,789.42 4.86,613.07 -56.7,4629.09 18.72,4837.85 49.52,-783.73 -8.51,-1656.74 4.45,-2453.72 13.09,-806.24 -5.9,-1612.09 15.16,-2418.82 5.57,-213.5 -13.25,-364.45 -116.61,-523.7 -254.11,-391.52 -815.2,-528.31 -1242.55,-296.66 -647.48,350.99 -514.42,1044.98 -511.85,1887.86 4.95,1622.62 -4.21,3249.07 3.71,4871.9 2.14,438.65 192.06,1554.37 -432.4,1343.27 -202.96,-68.61 -208.98,-161.06 -328.24,-285.54l-569.94 -636.68c-38.52,-49.27 -39.11,-61.93 -75.89,-103.75 -68.08,-77.41 -15.43,-12.45 -72.81,-68.23 -37.44,-36.4 -33.01,-27.26 -66.69,-74.88l-502.08 -563.81c-98.16,-110.91 -195.74,-229.62 -337.91,-304.63 -1007.82,-531.7 -1865.45,471.94 -1264.68,1478.67l510.32 624.77c132.8,169.5 263.69,374.03 411.73,515.07 185.05,176.28 678.44,834.16 875.93,1079.32l31.21 39.42c4.67,5.52 11.62,13.44 16.37,18.88l1099.05 1390.71c110.51,163.29 352.62,568.37 423.66,791.86 244.53,769.38 215.92,1383.77 208.53,2223.4l2.55 4690.38c12.75,88.34 -2.99,49.87 35.37,92.61 80.82,63.3 3339.39,41.56 3748.13,36.53 1045.77,-12.87 2807.85,74.65 3736.96,-10.11 16.3,-158.57 27.52,-1828.85 4.14,-1948.37 -13.78,-70.41 -44.15,-102.32 -87.11,-147.07l-410.27 -339.06c-122.74,-101.37 -147.5,-154.05 -241.4,-255.63 -47.23,-51.09 -70.62,-61.56 -123.79,-127.25 -348.5,-430.66 -570.64,-886.24 -782.11,-1422.19 -378.78,-959.94 -231.19,-2405.63 303.22,-3293.29 435.28,-723 200.41,-361.86 621.86,-869.12 118.23,-142.31 75.83,-117.35 234.21,-231.39l262.82 -235.3c1006.62,-914.63 2185.21,-830 2425.99,-990.44 50.55,-258.15 13.08,-2831.08 8.73,-3307.19 -5.09,-556.51 -5.62,-1116.11 -6.06,-1671.37 -0.37,-470.89 46.57,-1103.66 -191.62,-1452.99 -254.31,-372.98 -787.54,-495.15 -1190.75,-313.65 -293.73,132.21 -273.5,167.19 -426.42,396.94 -89.85,135 -87.63,135 -99.21,316.69 -42.89,673.27 -43.27,1375.29 -21.09,2049.11 9.01,273.64 -8.69,507.88 -285.98,537.75 -329.43,35.48 -386.23,-151.62 -392.19,-429.78 -23.19,-1083.68 -17.28,-2223.48 -1.75,-3308.89 6.82,-477.75 57.29,-1162.51 -99.46,-1566.31 -133.35,-343.51 -602.59,-648.38 -1092.83,-522.97 -109.93,28.12 -214.46,92.07 -293.9,135.54 -138.48,75.77 -136.05,106.73 -211.37,216.7 -207.37,302.75 -165.36,234.71 -187.8,634.41 -60.64,1080.39 3.85,2189.28 -7.07,3271.87 -5.05,500.58 76.32,1136.07 -68.15,1550.01 -357.05,65.75 -602.26,15.12 -597.02,-409.92l13.4 -3238.2c1.14,-531.8 93.14,-2738.63 -123.23,-3155.61 -270.84,-521.96 -977.31,-671.95 -1425.89,-338.92 -185.44,137.67 -325.86,353.02 -375.85,694.28 -79.15,540.48 -45.96,4481.58 -36.77,5431.78 1.53,159.14 -26.87,829.08 10.82,958.29 34.05,116.75 -64.48,15.38 54.58,92.32z"/>
   <path class="fil0" d="M5725.36 11311.31c0,-373.29 711.22,-490.71 711.22,35.56 0,460.93 -711.22,455.51 -711.22,-35.56zm-711.23 -35.56l0 177.81c0,459.33 519.42,960.15 960.15,960.15 389.68,0 596.67,-3.38 916.92,-327.72 409.55,-414.81 388.94,-1184.58 -37.05,-1547.87 -757.7,-646.17 -1840.03,-105.98 -1840.03,737.63z"/>
   <path class="fil0" d="M8250.21 12840.44c0,-468.23 746.78,-534.75 746.78,0 0,519.32 -746.78,417.8 -746.78,0zm-711.23 -142.24c0,279.19 -22.84,374.05 117.34,629.46 42,76.52 153.26,232.2 212.19,285.67 563.47,511.17 1462.06,311.4 1757.98,-321.19 213.21,-455.77 105.02,-913.48 -210.05,-1226.74 -755.39,-751.01 -1877.46,-86.75 -1877.46,632.8z"/>
   <path class="fil0" d="M8570.26 9533.24c187.15,0 426.73,-14.5 426.73,391.18 0,191.76 -175.86,320.05 -355.6,320.05 -467.82,0 -506.25,-711.23 -71.13,-711.23zm-1031.28 248.93c0,1084.48 970.88,1359.75 1566.03,1068.16 52.01,-25.48 106.15,-50.7 161.87,-87.05 544.04,-354.92 649.39,-1181.36 149.17,-1649.1 -797.96,-746.16 -1877.07,-46.97 -1877.07,667.98z"/>
   <path class="fil0" d="M6401.03 15543.1c-477.67,0 -555.53,-711.23 0,-711.23 503.08,0 398.7,711.23 0,711.23zm-1102.41 -426.74c0,410.07 7.09,528.18 328.13,845.4 647.07,639.38 1841.12,154.47 1841.12,-667.59 0,-374.13 -13.43,-564.77 -310.03,-863.49 -637.76,-642.31 -1859.21,-244.67 -1859.21,685.69z"/>
   <path class="fil1" d="M15753.63 14828.98c-8.69,-8.04 377.4,24.87 533.41,23.87 181.62,-1.17 511.92,-21.81 677.6,-2.03 230.94,27.58 326.7,151.87 339.09,369.61l-8.23 1355.44c-5.81,265.79 -24.06,369.8 -295.28,406.97 -421.55,57.77 -970.56,-83.27 -1315.35,53.82 -30.24,356.49 32.61,872.19 -28.62,1193.87 -65.22,342.64 -682.81,244.51 -1005.03,245.7 -1502.73,5.52 -936.88,-176.76 -1060.74,-1419.12 -444.23,-256.92 -1554.86,210.68 -1622.66,-352.86 -32.1,-266.78 -9.62,-699.22 -11.32,-983.35 -2.4,-398.04 -44.13,-635.72 186.28,-847.29 223.71,-19.69 1294.27,21.93 1386.84,-55.81 81.32,-58.98 69.08,-55.18 72.62,-196.83 33.99,-1361.14 -206.26,-1241.53 977.85,-1255.36 327.14,-3.82 933.67,-86.93 1053.72,196.57 61.19,144.53 32.4,667.31 33.72,878.52l32.49 282.95c2.69,9.75 6.88,22.75 11.8,33.54l-17.6 -1098.83c27.89,-140.45 -45.11,-225.68 -147.06,-291.35 -114.07,-73.49 -220.94,-66.38 -397.21,-65.14 -308.26,2.18 -617.22,1.63 -925.52,0.84 -752.63,-1.93 -692.98,92.85 -674.38,1174.8 6.65,387.05 69.93,318.89 -605.78,318.81 -1126.75,-0.12 -1079.35,-249.67 -1068.51,1708.61 1.72,311.72 88.49,520.75 390.85,533.74 288.84,12.41 634.12,1.4 927.23,-2.64 199.84,-2.75 322.58,-51.91 355.45,106.84 51.86,250.42 -113.69,1050.01 106.68,1280.22 152.37,159.19 507.21,107.16 817.43,107.16 883.7,0 1283.76,169.03 1281.54,-567.66 -0.94,-308.65 -1.33,-617.23 -1.33,-925.92 1888.87,0 1586.04,351.76 1602,-1779.8 1.86,-249.53 -45.73,-374.78 -237.35,-438.32 -175.94,-58.36 -1188.05,-52.54 -1364.65,10.43z"/>
   <path class="fil1" d="M15184.65 16379.47c-74.55,24.84 -143.03,64.41 -170.87,201.66l-6.94 1237.89 -746.79 0c0,-260.78 -0.15,-521.57 0.01,-782.35 0.55,-890.97 -32.88,-746.78 -1635.82,-746.78l0 -782.35c1876.71,0 1635.81,242.68 1635.81,-1529.14l746.79 0 -2.71 1176.23c23.44,436.2 547.1,352.94 820.62,352.91 260.78,-0.03 521.56,0 782.35,0l0 782.35c-448.45,0 -982.56,-34.93 -1372.88,35.56 9.17,7.72 23.94,4.1 30.65,18.82l1381.99 42.8c1.99,-266.97 46.09,-679.81 -30.01,-927.68 -321.34,-55.23 -1256.46,57.29 -1442.7,-80.32 -244.99,-181.01 -69.09,-1078.04 -131.75,-1421.77 -115.55,-68.61 -263.6,-36.4 -427.27,-35.7 -118.97,0.5 -335.1,-30.09 -392.43,64.97 -105.7,344.92 147.99,1207.95 -153.59,1396.56 -264.36,165.33 -1288.54,-67.37 -1474.13,95.04 -113.6,153.75 -69.24,736.58 -6.3,884.42 296.47,20.17 1317.8,-57.76 1494.58,71.24 229.62,167.53 79.49,1091.63 144.81,1415.64 197.39,46.68 619.7,57.36 807.29,-11.73 110.48,-569.58 -81,-1059.94 122.66,-1367.05 61.31,-92.45 111.38,-37.74 26.63,-91.21z"/>
  </g>
 </g>
</svg>
